# Blender v2.80 (sub 51) OBJ File: 'box.blend'
# www.blender.org
mtllib box.mtl
o Cube_Cube.003
v -0.183331 -0.352359 -0.294199
v -0.183331 0.352359 -0.294199
v -0.171835 -0.352359 -0.294199
v -0.171835 0.352359 -0.294199
v -0.171835 0.348807 0.261347
v -0.183331 0.348807 0.261347
v -0.171835 0.090630 0.399346
v -0.183331 0.090630 0.399346
v -0.171835 -0.007741 0.409035
v -0.183331 -0.007741 0.409035
v -0.171835 0.352359 0.257020
v -0.183331 0.352359 0.257020
v -0.171835 0.185221 0.370652
v -0.183331 0.185221 0.370652
v -0.171835 -0.106113 0.399346
v -0.183331 -0.106113 0.399346
v -0.171835 -0.287880 0.324056
v -0.183331 -0.287880 0.324056
v -0.171835 -0.352359 0.271139
v -0.183331 -0.352359 0.271139
v -0.171835 0.272397 0.324056
v -0.183331 0.272397 0.324056
v -0.171835 -0.200704 0.370652
v -0.183331 -0.200704 0.370652
v 0.191672 -0.000000 -0.062892
v 0.191672 -0.012270 -0.061683
v 0.191672 -0.024068 -0.058104
v 0.191672 -0.034941 -0.052292
v 0.191672 -0.044471 -0.044471
v 0.191672 -0.052292 -0.034941
v 0.191672 -0.058104 -0.024068
v 0.191672 -0.061683 -0.012270
v 0.191672 -0.062892 -0.000000
v 0.191672 -0.061683 0.012270
v 0.191672 -0.058104 0.024068
v 0.191672 -0.052292 0.034941
v 0.191672 -0.044471 0.044471
v 0.191672 -0.034941 0.052292
v 0.191672 -0.024068 0.058104
v 0.191672 -0.012270 0.061683
v 0.191672 -0.000000 0.062891
v 0.191672 0.012269 0.061683
v 0.191672 0.024068 0.058104
v 0.191672 0.034941 0.052292
v 0.191672 0.044471 0.044471
v 0.191672 0.052292 0.034941
v 0.191672 0.058104 0.024067
v 0.191672 0.061683 0.012269
v 0.191672 0.062891 -0.000000
v 0.191672 0.061683 -0.012270
v 0.191672 0.058104 -0.024068
v 0.191672 0.052292 -0.034941
v 0.191672 0.044471 -0.044471
v 0.191672 0.034941 -0.052292
v 0.191672 0.024067 -0.058104
v 0.191672 0.012269 -0.061683
v 0.173978 0.114182 -0.279125
v 0.173978 0.114182 0.279125
v 0.058502 0.114182 0.279125
v 0.058502 -0.311313 0.279125
v -0.056974 -0.311313 0.279125
v 0.173978 -0.311313 -0.279125
v 0.173978 -0.311313 0.279125
v -0.056974 -0.311313 -0.279125
v 0.058502 -0.311313 -0.279125
v 0.058502 0.114182 -0.279125
v -0.056974 0.114182 -0.279125
v -0.056974 0.114182 0.279125
v 0.058502 -0.164943 -0.279125
v -0.056974 -0.164943 -0.279125
v -0.056974 -0.164943 0.279125
v 0.058502 -0.164943 0.279125
v -0.056974 -0.023909 0.015976
v 0.058502 -0.023909 0.015976
v -0.056974 -0.000000 -0.028755
v 0.058502 -0.000000 -0.028755
v -0.056974 0.005610 -0.028203
v 0.058502 0.005610 -0.028203
v -0.056974 0.011004 -0.026566
v 0.058502 0.011004 -0.026566
v -0.056974 0.026566 0.011004
v 0.058502 0.026566 0.011004
v -0.056974 0.023909 0.015976
v 0.058502 0.023909 0.015976
v -0.056974 0.028203 0.005610
v 0.058502 0.028203 0.005610
v -0.056974 0.020333 0.020333
v 0.058502 0.020333 0.020333
v -0.056974 0.005610 0.028203
v 0.058502 0.005610 0.028203
v -0.056974 -0.000000 0.028755
v 0.058502 -0.000000 0.028755
v -0.056974 0.011004 0.026566
v 0.058502 0.011004 0.026566
v -0.056974 -0.028203 -0.005610
v 0.058502 -0.028203 -0.005610
v -0.056974 -0.015976 -0.023909
v 0.058502 -0.015976 -0.023909
v -0.056974 -0.028755 -0.000000
v 0.058502 -0.028755 -0.000000
v -0.056974 -0.026567 -0.011004
v 0.058502 -0.026567 -0.011004
v -0.056974 -0.005610 0.028203
v 0.058502 -0.005610 0.028203
v -0.056974 0.020333 -0.020333
v 0.058502 0.020333 -0.020333
v -0.056974 0.015976 -0.023909
v 0.058502 0.015976 -0.023909
v -0.056974 0.023909 -0.015976
v 0.058502 0.023909 -0.015976
v -0.056974 -0.028203 0.005610
v 0.058502 -0.028203 0.005610
v -0.056974 -0.015976 0.023909
v 0.058502 -0.015976 0.023909
v -0.056974 -0.020333 0.020333
v 0.058502 -0.020333 0.020333
v -0.056974 -0.026567 0.011004
v 0.058502 -0.026567 0.011004
v -0.056974 0.028755 -0.000000
v 0.058502 0.028755 -0.000000
v -0.056974 0.015976 0.023909
v 0.058502 0.015976 0.023909
v -0.056974 0.028203 -0.005610
v 0.058502 0.028203 -0.005610
v -0.056974 -0.020333 -0.020333
v 0.058502 -0.020333 -0.020333
v -0.056974 -0.011004 0.026566
v 0.058502 -0.011004 0.026566
v -0.056974 -0.023909 -0.015976
v 0.058502 -0.023909 -0.015976
v -0.056974 0.026566 -0.011004
v 0.058502 0.026566 -0.011004
v -0.056974 -0.011004 -0.026566
v 0.058502 -0.011004 -0.026566
v -0.056974 -0.005610 -0.028203
v 0.058502 -0.005610 -0.028203
v 0.173978 -0.062892 -0.000000
v 0.173978 -0.061683 -0.012270
v 0.173978 -0.058104 -0.024068
v 0.173978 -0.052292 -0.034941
v 0.173978 -0.044471 -0.044471
v 0.173978 -0.034941 -0.052292
v 0.173978 -0.024068 -0.058104
v 0.173978 -0.012270 -0.061683
v 0.173978 -0.000000 -0.062892
v 0.173978 0.012269 -0.061683
v 0.173978 0.024067 -0.058104
v 0.173978 0.034941 -0.052292
v 0.173978 0.044471 -0.044471
v 0.173978 0.052292 -0.034941
v 0.173978 0.058104 -0.024068
v 0.173978 0.061683 0.012269
v 0.173978 0.062891 -0.000000
v 0.173978 0.061683 -0.012270
v 0.173978 -0.061683 0.012270
v 0.173978 -0.058104 0.024068
v 0.173978 -0.052292 0.034941
v 0.173978 0.052292 0.034941
v 0.173978 0.058104 0.024067
v 0.173978 -0.044471 0.044471
v 0.173978 0.044471 0.044471
v 0.173978 -0.034941 0.052292
v 0.173978 0.034941 0.052292
v 0.173978 -0.024068 0.058104
v 0.173978 0.024068 0.058104
v 0.173978 0.012269 0.061683
v 0.173978 -0.012270 0.061683
v 0.173978 -0.000000 0.062891
v -0.171835 0.114182 0.279125
v -0.171835 -0.311313 -0.279125
v -0.171835 0.114182 -0.279125
v -0.171835 -0.311313 0.279125
v 0.058502 -0.311313 0.069396
v -0.056974 -0.311313 0.069396
v -0.056974 -0.311313 -0.069396
v 0.058502 -0.311313 -0.069396
v 0.058502 -0.248316 -0.069396
v -0.056974 -0.248316 -0.069396
v -0.056974 -0.248316 0.069396
v 0.058502 -0.248316 0.069396
vt 0.976245 0.987973
vt 0.976245 0.671027
vt 0.972341 0.671027
vt 0.972341 0.987973
vt 0.967220 0.969512
vt 0.777599 0.969512
vt 0.777599 0.778146
vt 0.746510 0.746197
vt 0.736763 0.788739
vt 0.733472 0.832981
vt 0.736763 0.877224
vt 0.746509 0.919766
vt 0.762337 0.958973
vt 0.780311 0.987972
vt 0.980150 0.925287
vt 0.984054 0.925287
vt 0.984054 0.671027
vt 0.980150 0.671027
vt 0.984054 0.920883
vt 0.987959 0.920883
vt 0.987959 0.672973
vt 0.984054 0.672973
vt 0.984054 0.671027
vt 0.987959 0.671027
vt 0.976245 0.739426
vt 0.976245 0.780499
vt 0.980150 0.780499
vt 0.980150 0.739426
vt 0.976245 0.824101
vt 0.976245 0.868558
vt 0.980150 0.868558
vt 0.980150 0.824101
vt 0.976245 0.912160
vt 0.980150 0.912160
vt 0.976245 0.671027
vt 0.976245 0.702462
vt 0.980150 0.702462
vt 0.980150 0.671027
vt 0.564510 0.157665
vt 0.614913 0.234155
vt 0.659296 0.337570
vt 0.686627 0.449782
vt 0.695856 0.566478
vt 0.686627 0.683173
vt 0.659296 0.795385
vt 0.614913 0.898800
vt 0.555183 0.989443
vt 0.551061 0.993657
vt 0.026023 0.993657
vt 0.026023 0.157665
vt 0.976245 0.953233
vt 0.980150 0.953233
vt 0.976245 0.984425
vt 0.980150 0.984425
vt 0.932620 0.462116
vt 0.939902 0.452231
vt 0.944919 0.441247
vt 0.947476 0.429586
vt 0.947476 0.417697
vt 0.944919 0.406036
vt 0.939902 0.395052
vt 0.932620 0.385167
vt 0.923351 0.376760
vt 0.912452 0.370155
vt 0.900342 0.365605
vt 0.887486 0.363285
vt 0.874378 0.363285
vt 0.861522 0.365605
vt 0.849411 0.370155
vt 0.838512 0.376760
vt 0.829243 0.385167
vt 0.821961 0.395052
vt 0.816945 0.406036
vt 0.814388 0.417697
vt 0.814388 0.429586
vt 0.816945 0.441247
vt 0.821961 0.452231
vt 0.829243 0.462116
vt 0.838512 0.470523
vt 0.849411 0.477128
vt 0.861521 0.481678
vt 0.874378 0.483997
vt 0.887486 0.483997
vt 0.900342 0.481678
vt 0.912452 0.477128
vt 0.923351 0.470523
vt 0.884926 0.144067
vt 0.866151 0.144067
vt 0.866151 0.265167
vt 0.884926 0.265167
vt 0.847377 0.265167
vt 0.866151 0.265167
vt 0.866151 0.144067
vt 0.847377 0.144067
vt 0.935800 0.022968
vt 0.916925 0.022968
vt 0.916925 0.144067
vt 0.935800 0.144067
vt 0.847377 0.219671
vt 0.839589 0.219671
vt 0.823452 0.265167
vt 0.935800 0.144067
vt 0.954675 0.144067
vt 0.954675 0.022968
vt 0.935800 0.022968
vt 0.898050 0.236368
vt 0.916925 0.236368
vt 0.916925 0.144067
vt 0.898050 0.144067
vt 0.954575 0.144067
vt 0.935800 0.144067
vt 0.935800 0.236368
vt 0.954575 0.236368
vt 0.847377 0.144067
vt 0.847377 0.022968
vt 0.828713 0.069875
vt 0.830719 0.070137
vt 0.832647 0.070913
vt 0.834424 0.072174
vt 0.835982 0.073871
vt 0.837261 0.075938
vt 0.838211 0.078297
vt 0.838796 0.080856
vt 0.838993 0.083518
vt 0.838796 0.086179
vt 0.838211 0.088739
vt 0.837261 0.091097
vt 0.835982 0.093165
vt 0.834424 0.094861
vt 0.832647 0.096122
vt 0.830719 0.096898
vt 0.828713 0.097161
vt 0.935800 0.144067
vt 0.916925 0.144067
vt 0.916925 0.236368
vt 0.935800 0.236368
vt 0.823452 0.144067
vt 0.839589 0.189563
vt 0.847377 0.189563
vt 0.847377 0.144067
vt 0.893001 0.144067
vt 0.893001 0.022968
vt 0.847377 0.022968
vt 0.866040 0.077280
vt 0.866957 0.077400
vt 0.867839 0.077755
vt 0.868651 0.078331
vt 0.869364 0.079107
vt 0.869948 0.080052
vt 0.870383 0.081131
vt 0.870650 0.082301
vt 0.870740 0.083518
vt 0.870650 0.084735
vt 0.870383 0.085905
vt 0.869948 0.086983
vt 0.869364 0.087928
vt 0.868651 0.088704
vt 0.867839 0.089281
vt 0.866957 0.089636
vt 0.866040 0.089755
vt 0.777828 0.265167
vt 0.777828 0.144067
vt 0.796492 0.198379
vt 0.797409 0.198499
vt 0.798290 0.198854
vt 0.799103 0.199430
vt 0.799815 0.200206
vt 0.800400 0.201151
vt 0.800834 0.202230
vt 0.801101 0.203400
vt 0.801192 0.204617
vt 0.801101 0.205834
vt 0.800834 0.207004
vt 0.800400 0.208082
vt 0.799815 0.209028
vt 0.799103 0.209803
vt 0.798290 0.210380
vt 0.797409 0.210735
vt 0.796492 0.210855
vt 0.156886 0.015298
vt 0.156886 0.131091
vt 0.164632 0.131091
vt 0.164632 0.015298
vt 0.179383 0.015298
vt 0.179383 0.131091
vt 0.185823 0.131091
vt 0.185823 0.015298
vt 0.172228 0.015298
vt 0.172228 0.131091
vt 0.047945 0.131091
vt 0.047945 0.015298
vt 0.040200 0.015298
vt 0.040200 0.131091
vt 0.142135 0.015298
vt 0.142135 0.131091
vt 0.149290 0.131091
vt 0.149290 0.015298
vt 0.130218 0.015298
vt 0.130218 0.131091
vt 0.135695 0.131091
vt 0.135695 0.015298
vt 0.222356 0.131091
vt 0.222356 0.015298
vt 0.214760 0.015298
vt 0.214760 0.131091
vt 0.101282 0.015298
vt 0.101282 0.131091
vt 0.109027 0.131091
vt 0.109027 0.015298
vt 0.032604 0.131091
vt 0.032604 0.015298
vt 0.025448 0.015298
vt 0.025448 0.131091
vt 0.093686 0.015298
vt 0.093686 0.131091
vt 0.229511 0.131091
vt 0.229511 0.015298
vt 0.192263 0.131091
vt 0.192263 0.015298
vt 0.185823 0.015298
vt 0.185823 0.131091
vt 0.116623 0.015298
vt 0.116623 0.131091
vt 0.123779 0.131091
vt 0.123778 0.015298
vt 0.795575 0.210735
vt 0.794693 0.210380
vt 0.793880 0.209803
vt 0.793168 0.209028
vt 0.792583 0.208082
vt 0.792149 0.207004
vt 0.791882 0.205834
vt 0.791791 0.204617
vt 0.791882 0.203400
vt 0.792149 0.202230
vt 0.792583 0.201151
vt 0.793168 0.200206
vt 0.793880 0.199430
vt 0.794693 0.198854
vt 0.795575 0.198499
vt 0.199418 0.131091
vt 0.199418 0.015298
vt 0.074613 0.015298
vt 0.074613 0.131091
vt 0.080090 0.131091
vt 0.080090 0.015298
vt 0.019009 0.131091
vt 0.019009 0.015298
vt 0.013532 0.015298
vt 0.013532 0.131091
vt 0.865123 0.089636
vt 0.864242 0.089281
vt 0.863429 0.088704
vt 0.862717 0.087928
vt 0.862132 0.086983
vt 0.861698 0.085905
vt 0.861430 0.084735
vt 0.861340 0.083518
vt 0.861430 0.082301
vt 0.861698 0.081131
vt 0.862132 0.080052
vt 0.862717 0.079107
vt 0.863429 0.078331
vt 0.864242 0.077755
vt 0.865123 0.077400
vt 0.086530 0.131091
vt 0.086530 0.015298
vt 0.130218 0.131091
vt 0.130218 0.015298
vt 0.069137 0.131091
vt 0.069137 0.015298
vt 0.062697 0.015298
vt 0.062697 0.131091
vt 0.207014 0.015298
vt 0.207014 0.131091
vt 0.055542 0.131091
vt 0.055542 0.015298
vt 0.235951 0.131091
vt 0.235951 0.015298
vt 0.074613 0.131091
vt 0.074613 0.015298
vt 0.966288 0.504722
vt 0.985100 0.504722
vt 0.985100 0.493061
vt 0.966288 0.493061
vt 0.966288 0.469511
vt 0.985100 0.469511
vt 0.985100 0.458527
vt 0.966288 0.458527
vt 0.966288 0.481172
vt 0.985100 0.481172
vt 0.966288 0.404222
vt 0.985100 0.404222
vt 0.985100 0.392562
vt 0.966288 0.392562
vt 0.966288 0.525591
vt 0.985100 0.525591
vt 0.985100 0.515706
vt 0.966288 0.515706
vt 0.947476 0.371692
vt 0.966288 0.371692
vt 0.966288 0.363285
vt 0.947476 0.363285
vt 0.947476 0.427772
vt 0.966288 0.427772
vt 0.966288 0.416111
vt 0.947476 0.416111
vt 0.966288 0.489579
vt 0.947476 0.489579
vt 0.947476 0.501468
vt 0.966288 0.501468
vt 0.966288 0.381578
vt 0.985100 0.381578
vt 0.985100 0.371692
vt 0.966288 0.371692
vt 0.966288 0.477918
vt 0.947476 0.477918
vt 0.947476 0.438756
vt 0.966288 0.438756
vt 0.947476 0.381578
vt 0.966288 0.381578
vt 0.966288 0.513128
vt 0.947476 0.513128
vt 0.947476 0.524113
vt 0.966288 0.524113
vt 0.947476 0.392562
vt 0.966288 0.392562
vt 0.985100 0.448642
vt 0.966288 0.448642
vt 0.947476 0.457048
vt 0.966288 0.457048
vt 0.966288 0.448642
vt 0.947476 0.448642
vt 0.966288 0.457048
vt 0.947476 0.457048
vt 0.947476 0.466934
vt 0.966288 0.466934
vt 0.947476 0.533998
vt 0.966288 0.533998
vt 0.966288 0.438756
vt 0.985100 0.438756
vt 0.985100 0.427772
vt 0.966288 0.427772
vt 0.966288 0.404222
vt 0.947476 0.404222
vt 0.966288 0.533998
vt 0.985100 0.533998
vt 0.966288 0.416111
vt 0.985100 0.416111
vt 0.985100 0.363285
vt 0.966288 0.363285
vt 0.777828 0.022968
vt 0.777828 0.144067
vt 0.826708 0.096898
vt 0.824779 0.096122
vt 0.823002 0.094861
vt 0.821444 0.093165
vt 0.820166 0.091097
vt 0.819216 0.088739
vt 0.818631 0.086179
vt 0.818433 0.083518
vt 0.818631 0.080856
vt 0.819216 0.078297
vt 0.820166 0.075938
vt 0.821444 0.073871
vt 0.823002 0.072174
vt 0.824779 0.070913
vt 0.826708 0.070137
vt 0.966288 0.448642
vt 0.985100 0.448642
vt 0.954575 0.236368
vt 0.973349 0.236368
vt 0.973349 0.144067
vt 0.954575 0.144067
vt 0.777828 0.022968
vt 0.777828 0.022968
vt 0.777828 0.022968
vt 0.785107 0.671027
vt 0.783637 0.672624
vt 0.762337 0.706989
vt 0.967220 0.778146
vt 0.954675 0.022968
vt 0.954675 0.068464
vt 0.954675 0.098572
vt 0.954675 0.144067
vt 0.898050 0.266476
vt 0.916925 0.266476
vt 0.916925 0.236368
vt 0.898050 0.236368
vt 0.916925 0.266476
vt 0.935800 0.266476
vt 0.935800 0.236368
vt 0.916925 0.236368
vt 0.892714 0.169117
vt 0.884926 0.169117
vt 0.884926 0.194167
vt 0.892714 0.194167
vt 0.884926 0.169117
vt 0.892714 0.169117
vt 0.892714 0.144067
vt 0.884926 0.144067
vt 0.954675 0.022968
vt 0.954675 0.068464
vt 0.954675 0.098572
vt 0.954675 0.144067
vt 0.909137 0.098572
vt 0.909137 0.068464
vt 0.916925 0.098572
vt 0.916925 0.068464
vn 0.0000 0.0000 -1.0000
vn 1.0000 0.0000 -0.0000
vn 0.0000 -1.0000 0.0000
vn 0.0000 1.0000 0.0000
vn 0.0000 0.7730 0.6344
vn 0.0000 0.2903 0.9569
vn 0.0000 -0.0980 0.9952
vn 0.0000 -0.2903 0.9569
vn 0.0000 0.6344 0.7730
vn -1.0000 0.0000 -0.0000
vn 0.0000 0.4714 0.8819
vn 0.0000 0.0980 0.9952
vn 0.0000 -0.4714 0.8819
vn 0.0000 -0.6344 0.7730
vn 0.0000 0.0000 1.0000
vn -0.0000 -0.9952 0.0980
vn 0.0000 -0.7730 0.6344
vn 0.0000 -0.8819 0.4714
vn -0.0000 0.9952 -0.0980
vn -0.0000 -0.9569 -0.2903
vn -0.0000 -0.9952 -0.0980
vn -0.0000 -0.7730 -0.6344
vn 0.0000 0.0980 -0.9952
vn -0.0000 0.8819 -0.4714
vn -0.0000 0.2903 -0.9569
vn 0.0000 -0.6344 -0.7730
vn 0.0000 -0.4714 -0.8819
vn -0.0000 0.6344 -0.7730
vn -0.0000 0.9569 -0.2903
vn -0.0000 0.8819 0.4714
vn 0.0000 -0.0980 -0.9952
vn 0.0000 -0.8819 -0.4714
vn -0.0000 0.9952 0.0980
vn -0.0000 -0.9569 0.2903
vn -0.0000 0.4714 -0.8819
vn 0.0000 -0.2903 -0.9569
vn -0.0000 0.9569 0.2903
vn -0.0000 0.7730 -0.6344
usemtl Material.004
s off
f 1/1/1 2/2/1 4/3/1 3/4/1
f 3/4/2 170/5/2 172/6/2 169/7/2 13/8/2 7/9/2 9/10/2 15/11/2 23/12/2 17/13/2 19/14/2
f 1/15/3 3/16/3 19/17/3 20/18/3
f 4/19/4 2/20/4 12/21/4 11/22/4
f 5/23/5 11/22/5 12/21/5 6/24/5
f 14/25/6 8/26/6 7/27/6 13/28/6
f 10/29/7 16/30/7 15/31/7 9/32/7
f 16/30/8 24/33/8 23/34/8 15/31/8
f 6/35/9 22/36/9 21/37/9 5/38/9
f 20/39/10 18/40/10 24/41/10 16/42/10 10/43/10 8/44/10 14/45/10 22/46/10 6/47/10 12/48/10 2/49/10 1/50/10
f 22/36/11 14/25/11 13/28/11 21/37/11
f 8/26/12 10/29/12 9/32/12 7/27/12
f 24/33/13 18/51/13 17/52/13 23/34/13
f 18/51/14 20/53/14 19/54/14 17/52/14
f 26/55/2 25/56/2 56/57/2 55/58/2 54/59/2 53/60/2 52/61/2 51/62/2 50/63/2 49/64/2 48/65/2 47/66/2 46/67/2 45/68/2 44/69/2 43/70/2 42/71/2 41/72/2 40/73/2 39/74/2 38/75/2 37/76/2 36/77/2 35/78/2 34/79/2 33/80/2 32/81/2 31/82/2 30/83/2 29/84/2 28/85/2 27/86/2
f 67/87/4 171/88/4 169/89/4 68/90/4
f 61/91/3 172/92/3 170/93/3 64/94/3
f 63/95/3 60/96/3 65/97/3 62/98/3
f 61/91/2 174/99/2 179/100/2 71/101/2
f 57/102/4 66/103/4 59/104/4 58/105/4
f 58/106/15 59/107/15 60/108/15 63/109/15
f 68/110/15 169/111/15 172/112/15 61/113/15
f 57/114/2 58/115/2 168/116/2 166/117/2 165/118/2 163/119/2 161/120/2 158/121/2 159/122/2 152/123/2 153/124/2 154/125/2 151/126/2 150/127/2 149/128/2 148/129/2 147/130/2 146/131/2 145/132/2
f 66/133/1 57/134/1 62/135/1 65/136/1
f 70/137/2 178/138/2 175/139/2 64/94/2
f 66/140/10 69/141/10 72/142/10 59/143/10 92/144/10 104/145/10 128/146/10 114/147/10 116/148/10 74/149/10 118/150/10 112/151/10 100/152/10 96/153/10 102/154/10 130/155/10 126/156/10 98/157/10 134/158/10 136/159/10 76/160/10
f 68/161/2 71/101/2 70/137/2 67/162/2 75/163/2 135/164/2 133/165/2 97/166/2 125/167/2 129/168/2 101/169/2 95/170/2 99/171/2 111/172/2 117/173/2 73/174/2 115/175/2 113/176/2 127/177/2 103/178/2 91/179/2
f 99/180/16 100/181/16 112/182/16 111/183/16
f 73/184/17 74/185/17 116/186/17 115/187/17
f 117/188/18 118/189/18 74/185/18 73/184/18
f 119/190/19 120/191/19 124/192/19 123/193/19
f 101/194/20 102/195/20 96/196/20 95/197/20
f 95/197/21 96/196/21 100/181/21 99/180/21
f 125/198/22 126/199/22 130/200/22 129/201/22
f 77/202/23 78/203/23 76/204/23 75/205/23
f 91/206/12 92/207/12 90/208/12 89/209/12
f 131/210/24 132/211/24 110/212/24 109/213/24
f 103/214/7 104/215/7 92/207/7 91/206/7
f 79/216/25 80/217/25 78/203/25 77/202/25
f 97/218/26 98/219/26 126/220/26 125/221/26
f 93/222/11 94/223/11 122/224/11 121/225/11
f 67/162/2 68/161/2 91/179/2 89/226/2 93/227/2 121/228/2 87/229/2 83/230/2 81/231/2 85/232/2 119/233/2 123/234/2 131/235/2 109/236/2 105/237/2 107/238/2 79/239/2 77/240/2 75/163/2
f 133/241/27 134/242/27 98/219/27 97/218/27
f 115/243/14 116/244/14 114/245/14 113/246/14
f 105/247/28 106/248/28 108/249/28 107/250/28
f 59/143/10 66/140/10 76/160/10 78/251/10 80/252/10 108/253/10 106/254/10 110/255/10 132/256/10 124/257/10 120/258/10 86/259/10 82/260/10 84/261/10 88/262/10 122/263/10 94/264/10 90/265/10 92/144/10
f 123/193/29 124/192/29 132/211/29 131/210/29
f 113/246/13 114/245/13 128/266/13 127/267/13
f 121/225/9 122/224/9 88/268/9 87/269/9
f 83/270/30 84/271/30 82/272/30 81/273/30
f 75/205/31 76/204/31 136/274/31 135/275/31
f 129/201/32 130/200/32 102/195/32 101/194/32
f 85/276/33 86/277/33 120/191/33 119/190/33
f 111/183/34 112/182/34 118/189/34 117/188/34
f 89/209/6 90/208/6 94/223/6 93/222/6
f 107/278/35 108/279/35 80/217/35 79/216/35
f 135/275/36 136/274/36 134/242/36 133/241/36
f 127/267/8 128/266/8 104/215/8 103/214/8
f 81/273/37 82/272/37 86/277/37 85/276/37
f 109/213/38 110/212/38 106/248/38 105/247/38
f 87/280/5 88/281/5 84/271/5 83/270/5
f 137/282/16 33/283/16 34/284/16 155/285/16
f 157/286/17 36/287/17 37/288/17 160/289/17
f 156/290/18 35/291/18 36/287/18 157/286/18
f 153/292/19 49/293/19 50/294/19 154/295/19
f 139/296/20 31/297/20 32/298/20 138/299/20
f 138/299/21 32/298/21 33/283/21 137/282/21
f 141/300/22 29/301/22 30/302/22 140/303/22
f 146/304/23 56/305/23 25/306/23 145/307/23
f 168/308/12 41/309/12 42/310/12 166/311/12
f 151/312/24 51/313/24 52/314/24 150/315/24
f 167/316/7 40/317/7 41/309/7 168/308/7
f 147/318/25 55/319/25 56/305/25 146/304/25
f 142/320/26 28/321/26 29/301/26 141/300/26
f 165/322/11 43/323/11 44/324/11 163/325/11
f 143/326/27 27/327/27 28/321/27 142/320/27
f 160/289/14 37/288/14 38/328/14 162/329/14
f 149/330/28 53/331/28 54/332/28 148/333/28
f 154/295/29 50/294/29 51/313/29 151/312/29
f 162/334/13 38/335/13 39/336/13 164/337/13
f 163/325/9 44/324/9 45/338/9 161/339/9
f 158/340/30 46/341/30 47/342/30 159/343/30
f 145/307/31 25/306/31 26/344/31 144/345/31
f 140/346/32 30/347/32 31/297/32 139/296/32
f 152/348/33 48/349/33 49/293/33 153/292/33
f 155/285/34 34/284/34 35/291/34 156/290/34
f 166/311/6 42/310/6 43/323/6 165/322/6
f 148/333/35 54/332/35 55/319/35 147/318/35
f 164/337/8 39/336/8 40/317/8 167/316/8
f 144/345/36 26/344/36 27/327/36 143/326/36
f 159/343/37 47/342/37 48/349/37 152/348/37
f 150/315/38 52/314/38 53/350/38 149/351/38
f 58/115/2 63/352/2 62/353/2 57/114/2 145/132/2 144/354/2 143/355/2 142/356/2 141/357/2 140/358/2 139/359/2 138/360/2 137/361/2 155/362/2 156/363/2 157/364/2 160/365/2 162/366/2 164/367/2 167/368/2 168/116/2
f 161/369/5 45/370/5 46/341/5 158/340/5
f 171/371/1 67/372/1 64/373/1 170/374/1
f 68/375/10 61/376/10 71/377/10
f 170/5/2 3/4/2 4/3/2 11/378/2 5/379/2 21/380/2 13/8/2 169/7/2 171/381/2
f 71/101/2 179/100/2 178/138/2 70/137/2
f 60/382/4 173/383/4 176/384/4 65/385/4
f 173/386/3 174/387/3 175/388/3 176/389/3
f 177/390/4 178/391/4 179/392/4 180/393/4
f 173/394/15 180/395/15 179/396/15 174/397/15
f 175/398/1 178/399/1 177/400/1 176/401/1
f 64/402/4 175/403/4 174/404/4 61/405/4
f 69/141/10 177/406/10 180/407/10 72/142/10
f 65/97/10 176/408/10 177/406/10 69/141/10
f 72/142/10 180/407/10 173/409/10 60/96/10
