# Blender v2.80 (sub 51) OBJ File: ''
# www.blender.org
mtllib table.mtl
o Cube.029_Cube.000
v 2.412410 -3.719680 -4.989504
v -2.412772 -3.719680 -4.989320
v -2.129799 -3.741642 -4.404068
v 2.129490 -3.741642 -4.404223
v 2.412785 -3.719694 5.036335
v 3.001651 -3.719694 5.036305
v 2.649621 -3.741651 4.445777
v 2.129816 -3.741651 4.445796
v -2.649308 -9.131202 3.714852
v -2.649279 -9.131202 4.445970
v -2.649279 -4.072229 4.445972
v -2.649308 -4.072227 3.714859
v 2.129791 -3.741647 3.557004
v -2.129506 -3.741647 3.557171
v -2.129473 -3.741651 4.445956
v 2.649315 -4.637515 -3.713450
v 2.649601 -4.637517 3.714655
v 2.129791 -4.637517 3.714671
v 2.129509 -4.637515 -3.713430
v 2.129509 -4.072217 -3.713429
v 2.649315 -4.072217 -3.713448
v -2.129775 -4.637515 -3.713266
v -2.649580 -4.637515 -3.713251
v -2.649580 -4.072217 -3.713250
v -2.129775 -4.072217 -3.713266
v -2.412772 -4.094176 -4.989326
v 2.412410 -4.094176 -4.989504
v 2.129490 -4.072215 -4.404224
v -2.129799 -4.072215 -4.404068
v -2.649580 -3.741643 -3.713250
v -2.649605 -3.741642 -4.404047
v -3.001634 -3.719680 -4.989295
v -3.001605 -3.719680 -4.206722
v -3.001296 -3.719693 4.029662
v -3.001263 -3.719694 5.036536
v -2.649279 -3.741651 4.445973
v -2.649312 -3.741647 3.557180
v 3.001273 -3.719680 -4.989530
v 2.649295 -3.741642 -4.404244
v 3.001273 -4.094176 -4.989530
v -2.129775 -3.741643 -3.713266
v 2.129816 -4.637521 4.445793
v 2.129791 -4.072227 3.714671
v 2.129816 -4.072229 4.445796
v 2.649589 -3.741647 3.556989
v 2.649315 -3.741643 -3.713448
v 2.129509 -3.741643 -3.713429
v 2.129490 -4.637512 -4.404228
v -2.129799 -4.637512 -4.404069
v -2.129498 -4.072227 3.714834
v -2.129498 -4.637517 3.714834
v -2.649308 -4.637517 3.714858
v -2.129473 -4.637521 4.445951
v 2.649621 -9.131202 4.445775
v 2.649601 -9.131202 3.714653
v 2.649601 -4.072227 3.714655
v 2.649621 -4.072229 4.445777
v -2.649605 -4.072215 -4.404047
v -2.129799 -9.131193 -4.404080
v -2.649605 -9.131193 -4.404055
v -3.001263 -4.094186 5.036532
v -3.001296 -4.094183 4.208280
v -3.001605 -4.094180 -4.206726
v -3.001634 -4.094176 -4.989295
v 3.001610 -3.719693 4.029438
v 3.001305 -3.719680 -4.206946
v -2.412394 -3.719694 5.036507
v 2.649295 -4.072215 -4.404245
v 2.649295 -9.131193 -4.404263
v 2.129490 -9.131193 -4.404230
v 2.412785 -4.094186 5.036335
v 3.001651 -4.094186 5.036304
v -2.412394 -4.094186 5.036506
v -2.129473 -4.072229 4.445952
v 2.129791 -9.131202 3.714666
v 2.129816 -9.131202 4.445786
v -2.649580 -9.131193 -3.713251
v -2.129775 -9.131193 -3.713269
v 2.129509 -9.131193 -3.713431
v 2.649315 -9.131193 -3.713451
v -2.129473 -9.131202 4.445941
v -2.129498 -9.131202 3.714828
v 3.001618 -4.094183 4.208052
v 3.001305 -4.094180 -4.206946
vt 0.054477 0.052799
vt 0.246786 0.084188
vt 0.066456 0.084188
vt 0.054477 0.590513
vt 0.044449 0.558840
vt 0.066456 0.558840
vt 0.963252 0.891345
vt 0.785652 0.849345
vt 0.963252 0.849345
vt 0.246786 0.511172
vt 0.246786 0.558840
vt 0.694552 0.125045
vt 0.955252 0.154945
vt 0.694552 0.154945
vt 0.975052 0.187445
vt 0.955252 0.157545
vt 0.975052 0.157545
vt 0.975052 0.217345
vt 0.955252 0.187445
vt 0.975052 0.187445
vt 0.308628 0.590513
vt 0.500937 0.559123
vt 0.512917 0.590513
vt 0.283697 0.536511
vt 0.268794 0.558840
vt 0.268794 0.511172
vt 0.044449 0.084188
vt 0.029546 0.052798
vt 0.553704 0.451189
vt 0.537848 0.482771
vt 0.537848 0.451189
vt 0.246786 0.121238
vt 0.537848 0.741559
vt 0.553704 0.482771
vt 0.553704 0.741559
vt 0.960852 0.615845
vt 0.935152 0.648345
vt 0.935152 0.615845
vt 0.044449 0.121238
vt 0.066456 0.511172
vt 0.044449 0.511172
vt 0.935152 0.606345
vt 0.785652 0.566545
vt 0.935152 0.566545
vt 0.066456 0.121238
vt 0.472213 0.767955
vt 0.073823 0.948285
vt 0.073823 0.767955
vt 0.955252 0.095145
vt 0.694552 0.125045
vt 0.694552 0.095145
vt 0.785652 0.606345
vt 0.935152 0.648345
vt 0.785652 0.648345
vt 0.785652 0.933445
vt 0.963252 0.975445
vt 0.785652 0.975445
vt 0.963252 0.357345
vt 0.785652 0.327445
vt 0.963252 0.327445
vt 0.537848 0.548541
vt 0.522945 0.559123
vt 0.522945 0.522073
vt 0.029546 0.536511
vt 0.258765 0.590513
vt 0.283697 0.590513
vt 0.268794 0.121238
vt 0.386790 0.504517
vt 0.374529 0.538869
vt 0.374529 0.497109
vt 0.963252 0.387245
vt 0.785652 0.357345
vt 0.963252 0.357345
vt 0.537848 0.773142
vt 0.553704 0.482771
vt 0.569559 0.451189
vt 0.569559 0.482771
vt 0.553704 0.773142
vt 0.569559 0.741559
vt 0.569559 0.773142
vt 0.960852 0.615845
vt 0.935152 0.583345
vt 0.960852 0.583345
vt 0.955252 0.219945
vt 0.975052 0.249845
vt 0.955252 0.249845
vt 0.955252 0.285045
vt 0.694552 0.252445
vt 0.955252 0.252445
vt 0.785652 0.891345
vt 0.963252 0.933445
vt 0.785652 0.933445
vt 0.785652 0.417145
vt 0.963252 0.447045
vt 0.785652 0.447045
vt 0.785652 0.476945
vt 0.963252 0.506745
vt 0.785652 0.506745
vt 0.785652 0.727845
vt 0.963252 0.688045
vt 0.963252 0.727845
vt 0.785652 0.849345
vt 0.963252 0.807245
vt 0.963252 0.849345
vt 0.963252 0.536645
vt 0.785652 0.506745
vt 0.963252 0.506745
vt 0.993452 0.062645
vt 0.843952 0.095145
vt 0.843952 0.062645
vt 0.785652 0.387245
vt 0.963252 0.417145
vt 0.785652 0.417145
vt 0.399051 0.155502
vt 0.399051 0.497109
vt 0.386790 0.155502
vt 0.955252 0.125045
vt 0.975052 0.154945
vt 0.955252 0.154945
vt 0.694552 0.095145
vt 0.843952 0.062645
vt 0.843952 0.095145
vt 0.785652 0.767545
vt 0.963252 0.727845
vt 0.963252 0.767545
vt 0.963252 0.767545
vt 0.785652 0.807245
vt 0.785652 0.767545
vt 0.258766 0.052799
vt 0.268794 0.084188
vt 0.537848 0.590512
vt 0.308628 0.052798
vt 0.298600 0.084471
vt 0.283697 0.052799
vt 0.298600 0.559123
vt 0.320608 0.559123
vt 0.512917 0.052799
vt 0.320608 0.084471
vt 0.522945 0.084471
vt 0.500938 0.084471
vt 0.283697 0.548541
vt 0.283697 0.097220
vt 0.298600 0.522074
vt 0.694552 0.219945
vt 0.955252 0.187445
vt 0.694552 0.187445
vt 0.955252 0.154945
vt 0.955252 0.187445
vt 0.955252 0.219945
vt 0.694552 0.252445
vt 0.694552 0.219945
vt 0.785652 0.536645
vt 0.963252 0.566545
vt 0.785652 0.566545
vt 0.955252 0.252445
vt 0.979452 0.285045
vt 0.955252 0.285045
vt 0.993452 0.030145
vt 0.843952 0.062645
vt 0.843952 0.030145
vt 0.963252 0.476945
vt 0.785652 0.447045
vt 0.963252 0.447045
vt 0.785652 0.688045
vt 0.963252 0.648345
vt 0.963252 0.688045
vt 0.553704 0.741559
vt 0.935152 0.294945
vt 0.959452 0.327445
vt 0.935152 0.327445
vt 0.785652 0.327445
vt 0.935152 0.294945
vt 0.935152 0.327445
vt 0.029545 0.590513
vt 0.785652 0.891345
vt 0.955252 0.125045
vt 0.955252 0.187445
vt 0.955252 0.217345
vt 0.283697 0.094771
vt 0.283697 0.052799
vt 0.960852 0.648345
vt 0.785652 0.606345
vt 0.472213 0.948285
vt 0.955252 0.125045
vt 0.935152 0.606345
vt 0.963252 0.933445
vt 0.785652 0.357345
vt 0.522945 0.123683
vt 0.537848 0.097220
vt 0.537848 0.052798
vt 0.029546 0.094770
vt 0.374528 0.155502
vt 0.374528 0.123044
vt 0.386790 0.123044
vt 0.386790 0.155502
vt 0.386790 0.538869
vt 0.785652 0.387245
vt 0.553704 0.773142
vt 0.553704 0.451189
vt 0.935152 0.615845
vt 0.975052 0.219945
vt 0.694552 0.285045
vt 0.963252 0.891345
vt 0.963252 0.417145
vt 0.963252 0.476945
vt 0.785652 0.688045
vt 0.785652 0.807245
vt 0.785652 0.536645
vt 0.993452 0.095145
vt 0.963252 0.387245
vt 0.399051 0.538869
vt 0.386790 0.504517
vt 0.386790 0.538869
vt 0.386790 0.123044
vt 0.399051 0.123044
vt 0.975052 0.125045
vt 0.694552 0.062645
vt 0.785652 0.727845
vt 0.963252 0.807245
vt 0.283697 0.590513
vt 0.298600 0.123683
vt 0.694552 0.187445
vt 0.694552 0.154945
vt 0.955252 0.252445
vt 0.963252 0.536645
vt 0.979452 0.252445
vt 0.993452 0.062645
vt 0.785652 0.476945
vt 0.785652 0.648345
vt 0.959452 0.294945
vt 0.785652 0.294945
vn 0.0000 0.9993 0.0375
vn -0.0000 0.9993 -0.0372
vn -1.0000 0.0000 0.0000
vn 0.0000 1.0000 0.0000
vn -0.0000 -1.0000 -0.0000
vn -0.0000 0.0000 -1.0000
vn 0.0000 -0.9993 0.0375
vn 0.0623 0.9981 0.0000
vn 1.0000 -0.0000 -0.0000
vn -0.0001 0.0000 -1.0000
vn 0.0623 -0.9981 -0.0000
vn -0.0623 0.9981 0.0000
vn 0.0000 -0.0000 1.0000
vn 0.0001 -0.0000 1.0000
vn -0.0000 -0.9993 -0.0372
vn -0.0623 -0.9981 0.0000
usemtl Материал.007
s 1
f 1/1/1 3/2/1 4/3/1
f 5/4/2 7/5/2 8/6/2
f 10/7/3 12/8/3 9/9/3
f 8/6/4 14/10/4 15/11/4
f 16/12/5 18/13/5 19/14/5
f 19/15/6 21/16/6 16/17/6
f 23/18/6 25/19/6 22/20/6
f 27/21/7 29/22/7 26/23/7
f 34/24/8 36/25/8 37/26/8
f 1/1/1 39/27/1 38/28/1
f 40/29/6 1/30/6 38/31/6
f 41/32/4 37/26/4 14/10/4
f 2/33/6 27/34/6 26/35/6
f 18/36/9 44/37/9 42/38/9
f 46/39/4 13/40/4 45/41/4
f 19/42/5 49/43/5 48/44/5
f 46/39/4 4/3/4 47/45/4
f 43/46/5 25/47/5 20/48/5
f 51/49/5 23/50/5 22/51/5
f 42/52/5 51/53/5 18/54/5
f 55/55/9 57/56/9 54/57/9
f 29/58/6 60/59/10 58/60/6
f 63/61/11 58/62/11 24/63/11
f 46/39/12 45/41/12 65/64/12
f 67/65/2 36/25/2 35/66/2
f 3/2/4 30/67/4 41/32/4
f 13/40/4 41/32/4 14/10/4
f 62/68/3 35/69/3 34/70/3
f 68/71/6 70/72/10 28/73/6
f 26/35/6 32/74/6 2/33/6
f 71/75/13 6/76/14 5/77/13
f 61/78/13 67/79/13 35/80/13
f 51/81/3 74/82/3 50/83/3
f 17/84/13 43/85/13 18/86/13
f 19/87/3 43/88/3 20/89/3
f 76/90/3 43/91/3 75/92/3
f 78/93/13 24/94/13 77/95/13
f 80/96/13 20/97/13 79/98/13
f 24/99/3 60/100/3 77/101/3
f 81/102/9 50/103/9 74/104/9
f 81/105/14 11/106/13 10/107/14
f 51/108/6 43/109/6 18/110/6
f 67/65/2 8/6/2 15/11/2
f 54/111/13 44/112/13 76/113/13
f 66/114/9 65/115/9 84/116/9
f 51/117/13 12/118/13 52/119/13
f 28/120/6 49/121/6 29/122/6
f 80/123/9 68/124/9 21/125/9
f 78/126/9 29/127/9 25/128/9
f 2/129/1 31/130/1 3/2/1
f 26/23/7 58/62/7 64/131/7
f 71/132/15 57/133/15 72/134/15
f 27/21/7 68/135/7 28/136/7
f 73/137/15 44/138/15 71/132/15
f 73/137/15 11/139/15 74/140/15
f 84/141/16 83/142/16 21/143/16
f 45/41/4 8/6/4 7/5/4
f 14/10/4 36/25/4 15/11/4
f 47/45/4 3/2/4 41/32/4
f 16/144/9 56/145/9 17/84/9
f 52/146/3 24/147/3 23/148/3
f 22/149/9 50/150/9 51/151/9
f 75/152/6 56/153/6 55/154/6
f 19/155/9 28/156/9 20/157/9
f 19/158/13 25/159/13 22/160/13
f 9/161/6 50/162/6 82/163/6
f 20/164/3 70/165/3 79/166/3
f 73/167/13 5/77/13 67/79/13
f 49/168/3 25/169/3 29/170/3
f 42/171/13 74/172/13 53/173/13
f 1/1/1 2/129/1 3/2/1
f 5/4/2 6/174/2 7/5/2
f 10/7/3 11/175/3 12/8/3
f 8/6/4 13/40/4 14/10/4
f 16/12/5 17/176/5 18/13/5
f 19/15/6 20/177/6 21/16/6
f 23/18/6 24/178/6 25/19/6
f 27/21/7 28/136/7 29/22/7
f 30/67/8 31/130/8 33/179/8
f 31/130/8 32/180/8 33/179/8
f 33/179/8 34/24/8 30/67/8
f 30/67/8 34/24/8 37/26/8
f 34/24/8 35/66/8 36/25/8
f 1/1/1 4/3/1 39/27/1
f 40/29/6 27/34/6 1/30/6
f 41/32/4 30/67/4 37/26/4
f 2/33/6 1/30/6 27/34/6
f 18/36/9 43/181/9 44/37/9
f 46/39/4 47/45/4 13/40/4
f 19/42/5 22/182/5 49/43/5
f 46/39/4 39/27/4 4/3/4
f 43/46/5 50/183/5 25/47/5
f 51/49/5 52/184/5 23/50/5
f 42/52/5 53/185/5 51/53/5
f 55/55/9 56/186/9 57/56/9
f 29/58/6 59/187/10 60/59/10
f 12/188/11 11/139/11 62/189/11
f 11/139/11 61/190/11 62/189/11
f 62/189/11 63/61/11 24/63/11
f 63/61/11 64/131/11 58/62/11
f 24/63/11 12/188/11 62/189/11
f 45/41/12 7/5/12 65/64/12
f 7/5/12 6/174/12 65/64/12
f 65/64/12 66/191/12 46/39/12
f 66/191/12 38/28/12 39/27/12
f 39/27/12 46/39/12 66/191/12
f 67/65/2 15/11/2 36/25/2
f 3/2/4 31/130/4 30/67/4
f 13/40/4 47/45/4 41/32/4
f 33/192/3 32/193/3 64/194/3
f 64/194/3 63/195/3 33/192/3
f 63/195/3 62/68/3 34/70/3
f 62/68/3 61/196/3 35/69/3
f 34/70/3 33/192/3 63/195/3
f 68/71/6 69/197/10 70/72/10
f 26/35/6 64/198/10 32/74/6
f 71/75/13 72/199/13 6/76/14
f 61/78/13 73/167/13 67/79/13
f 51/81/3 53/200/3 74/82/3
f 17/84/13 56/201/13 43/85/13
f 19/87/3 18/202/3 43/88/3
f 76/90/3 44/203/3 43/91/3
f 78/93/13 25/204/13 24/94/13
f 80/96/13 21/205/13 20/97/13
f 24/99/3 58/206/3 60/100/3
f 81/102/9 82/207/9 50/103/9
f 81/105/14 74/208/13 11/106/13
f 51/108/6 50/209/6 43/109/6
f 67/65/2 5/4/2 8/6/2
f 54/111/13 57/210/13 44/112/13
f 65/115/9 6/211/9 83/212/9
f 6/211/9 72/213/9 83/212/9
f 83/212/9 84/116/9 65/115/9
f 84/116/9 40/214/9 38/215/9
f 38/215/9 66/114/9 84/116/9
f 51/117/13 50/216/13 12/118/13
f 28/120/6 48/217/6 49/121/6
f 80/123/9 69/218/9 68/124/9
f 78/126/9 59/219/9 29/127/9
f 2/129/1 32/180/1 31/130/1
f 26/23/7 29/22/7 58/62/7
f 71/132/15 44/138/15 57/133/15
f 27/21/7 40/220/7 68/135/7
f 73/137/15 74/140/15 44/138/15
f 73/137/15 61/190/15 11/139/15
f 72/134/16 57/133/16 83/142/16
f 57/133/16 56/221/16 83/142/16
f 56/221/16 21/143/16 83/142/16
f 21/143/16 68/135/16 84/141/16
f 68/135/16 40/220/16 84/141/16
f 45/41/4 13/40/4 8/6/4
f 14/10/4 37/26/4 36/25/4
f 47/45/4 4/3/4 3/2/4
f 16/144/9 21/222/9 56/145/9
f 52/146/3 12/223/3 24/147/3
f 22/149/9 25/224/9 50/150/9
f 75/152/6 43/225/6 56/153/6
f 19/155/9 48/226/9 28/156/9
f 19/158/13 20/227/13 25/159/13
f 9/161/6 12/228/6 50/162/6
f 20/164/3 28/229/3 70/165/3
f 73/167/13 71/75/13 5/77/13
f 49/168/3 22/230/3 25/169/3
f 42/171/13 44/231/13 74/172/13
