<?xml version="1.0" standalone="no"?>
<!DOCTYPE svg PUBLIC "-//W3C//DTD SVG 20010904//EN"
 "http://www.w3.org/TR/2001/REC-SVG-20010904/DTD/svg10.dtd">
<svg version="1.0" xmlns="http://www.w3.org/2000/svg"
 width="512.000000pt" height="512.000000pt" viewBox="0 0 512.000000 512.000000"
 preserveAspectRatio="xMidYMid meet">
<metadata>
Created by potrace 1.11, written by Peter Selinger 2001-2013
</metadata>
<g transform="translate(0.000000,512.000000) scale(0.100000,-0.100000)"
fill="#000000" stroke="none">
<path d="M0 2560 l0 -2560 2560 0 2560 0 0 2560 0 2560 -2560 0 -2560 0 0
-2560z m2880 1640 c201 -25 431 -85 551 -145 220 -110 414 -304 523 -523 32
-63 88 -231 81 -242 -2 -4 -15 -5 -27 -3 -13 2 -88 -8 -168 -23 -431 -80 -413
-77 -425 -60 -5 9 -30 53 -55 98 -86 159 -260 301 -441 362 -112 38 -207 49
-344 43 -249 -13 -463 -102 -623 -258 -213 -209 -326 -613 -292 -1044 35 -433
125 -641 373 -863 20 -18 37 -30 37 -26 0 3 17 -8 38 -24 82 -65 250 -133 392
-158 88 -16 238 -13 366 6 172 27 381 113 526 217 l77 55 3 237 c3 200 1 238
-12 250 -12 11 -79 12 -378 6 -200 -3 -370 -9 -378 -12 -12 -4 -14 30 -14 220
0 123 -3 238 -6 254 l-6 30 689 9 c378 6 695 7 704 2 21 -9 29 -263 29 -872
l-1 -441 -37 -17 c-21 -10 -47 -26 -58 -35 -11 -10 -27 -22 -36 -28 -9 -5 -49
-32 -90 -60 -118 -80 -344 -189 -495 -238 -386 -126 -763 -150 -1148 -71 -120
25 -153 34 -275 81 -238 91 -486 290 -634 509 -48 71 -111 182 -134 234 -11
25 -31 72 -45 105 -42 97 -97 300 -117 435 -25 158 -27 435 -5 589 59 405 197
707 432 952 249 258 544 397 948 448 100 12 375 13 475 1z"/>
</g>
</svg>
